<svg xmlns="http://www.w3.org/2000/svg" viewBox="0 0 32 32" x="0px" y="0px" fill="#7d7d7d">
    <g>
        <path d="M26,18a10,10,0,0,0-9-9.95V6h1a1,1,0,0,0,0-2H14a1,1,0,0,0,0,2h1V8.05a10,10,0,0,0-5.76,17.3L6.29,28.29a1,1,0,0,0,1.42,1.42l3.15-3.15a9.89,9.89,0,0,0,10.28,0l3.15,3.15a1,1,0,0,0,1.42-1.42l-2.95-2.94A10,10,0,0,0,26,18ZM8,18a8,8,0,1,1,8,8A8,8,0,0,1,8,18Zm19.71-7.29a1,1,0,0,1-1.42,0l-3-3a1,1,0,0,1,1.42-1.42l3,3A1,1,0,0,1,27.71,10.71Zm-19-3-3,3A1,1,0,0,1,4.29,9.29l3-3A1,1,0,0,1,8.71,7.71ZM18.83,20.83a1,1,0,0,1-1.42,0l-2.12-2.12A1.05,1.05,0,0,1,15,18V15a1,1,0,0,1,2,0v2.59l1.83,1.82A1,1,0,0,1,18.83,20.83Z"/>
    </g>
</svg>