<svg class='contact-icon' xmlns="http://www.w3.org/2000/svg" xmlns:xlink="http://www.w3.org/1999/xlink" version="1.1" x="0px" y="0px" viewBox="0 0 100 100" fill="#2d2d2d" >
	<path d="M69.283,32.454C67.31,23.294,59.2,16.645,50,16.645c-9.199,0-17.31,6.649-19.284,15.81  c-0.728,3.377-0.767,7.125-0.119,11.457c1.325,8.88,5.126,17.317,10.767,24.269c-5.274,1.419-8.489,4.046-8.489,7.05  c0,4.556,7.522,8.125,17.125,8.125s17.125-3.569,17.125-8.125c0-2.988-3.22-5.632-8.487-7.052c5.64-6.952,9.44-15.388,10.765-24.266  C70.051,39.578,70.012,35.831,69.283,32.454z M65.125,75.23c0,2.897-6.212,6.125-15.125,6.125s-15.125-3.228-15.125-6.125  c0-2.139,3.166-4.255,7.93-5.349c1.981,2.232,4.154,4.295,6.512,6.137l0.271,0.212h0.824l0.271-0.212  c2.358-1.842,4.532-3.906,6.513-6.138C61.946,70.972,65.125,73.107,65.125,75.23z M67.425,43.616  C65.657,55.46,59.321,66.496,50,74.007c-9.321-7.511-15.657-18.547-17.425-30.391c-0.611-4.09-0.58-7.603,0.096-10.74  C34.448,24.63,41.736,18.645,50,18.645s15.552,5.985,17.328,14.231C68.005,36.012,68.036,39.526,67.425,43.616z"/><path d="M49.955,27.451c-5.079,0-9.212,4.133-9.212,9.212s4.133,9.212,9.212,9.212s9.212-4.133,9.212-9.212  S55.034,27.451,49.955,27.451z M49.955,43.876c-3.977,0-7.212-3.235-7.212-7.212s3.235-7.212,7.212-7.212s7.212,3.235,7.212,7.212  S53.932,43.876,49.955,43.876z"/>
</svg>