<svg class='contact-icon' xmlns="http://www.w3.org/2000/svg" xmlns:xlink="http://www.w3.org/1999/xlink" version="1.1" style="shape-rendering:geometricPrecision;text-rendering:geometricPrecision;image-rendering:optimizeQuality;" viewBox="0 0 333 333" x="0px" y="0px" fill="#7b7b7b" clip-rule="evenodd">
  <g>
    <path class="fil0" d="M143 80c13,12 13,33 0,46l-13 13c18,22 42,46 64,64l14 -13c12,-13 33,-13 46,0l21 21c11,12 12,30 2,43 -5,8 -14,14 -20,21 -20,20 -60,5 -99,-24 -29,-22 -54,-46 -75,-75 -30,-40 -45,-79 -25,-99 7,-7 14,-15 22,-21 12,-10 31,-9 42,3l21 21zm-31 58l22 -22c7,-7 7,-19 0,-27l-21 -21c-7,-7 -18,-7 -26,-1 -6,5 -13,13 -19,19 -14,14 0,47 25,82 21,27 45,51 73,72 34,26 67,40 81,26 6,-6 14,-13 20,-20 6,-8 5,-19 -2,-26l-21 -21c-7,-7 -20,-7 -27,0l-22 22c-29,-23 -60,-53 -83,-83z"/>
  </g>
</svg>